<?xml version="1.0" encoding="UTF-8" standalone="no"?>
<svg
   xmlns:dc="http://purl.org/dc/elements/1.1/"
   xmlns:cc="http://creativecommons.org/ns#"
   xmlns:rdf="http://www.w3.org/1999/02/22-rdf-syntax-ns#"
   xmlns:svg="http://www.w3.org/2000/svg"
   xmlns="http://www.w3.org/2000/svg"
   xmlns:xlink="http://www.w3.org/1999/xlink"
   xmlns:sodipodi="http://sodipodi.sourceforge.net/DTD/sodipodi-0.dtd"
   xmlns:inkscape="http://www.inkscape.org/namespaces/inkscape"
   width="16"
   version="1.0"
   height="16"
   id="svg2"
   inkscape:version="0.48.5 r10040"
   sodipodi:docname="button-active-border-dark.svg">
  <metadata
     id="metadata86">
    <rdf:RDF>
      <cc:Work
         rdf:about="">
        <dc:format>image/svg+xml</dc:format>
        <dc:type
           rdf:resource="http://purl.org/dc/dcmitype/StillImage" />
        <dc:title />
      </cc:Work>
    </rdf:RDF>
  </metadata>
  <sodipodi:namedview
     pagecolor="#ffffff"
     bordercolor="#666666"
     borderopacity="1"
     objecttolerance="10"
     gridtolerance="10"
     guidetolerance="10"
     inkscape:pageopacity="0"
     inkscape:pageshadow="2"
     inkscape:window-width="1211"
     inkscape:window-height="687"
     id="namedview84"
     showgrid="false"
     inkscape:zoom="19.666667"
     inkscape:cx="8.4624439"
     inkscape:cy="8.3981473"
     inkscape:window-x="460"
     inkscape:window-y="354"
     inkscape:window-maximized="0"
     inkscape:current-layer="svg2" />
  <defs
     id="defs5">
    <linearGradient
       xlink:href="#linearGradient3801"
       id="linearGradient5380"
       y1="672"
       x1="244"
       y2="708"
       gradientUnits="userSpaceOnUse"
       x2="243" />
    <linearGradient
       xlink:href="#linearGradient3837"
       id="linearGradient5394"
       y1="669"
       x1="204"
       y2="711"
       gradientUnits="userSpaceOnUse"
       x2="204" />
    <linearGradient
       xlink:href="#linearGradient3779-0"
       id="linearGradient5378"
       y1="705"
       x1="240"
       y2="675"
       gradientUnits="userSpaceOnUse"
       x2="240" />
    <linearGradient
       gradientTransform="matrix(-3,0,0,-3,249,714)"
       xlink:href="#linearGradient3771-2"
       id="linearGradient5374"
       y1="3"
       x1="13"
       y2="13"
       gradientUnits="userSpaceOnUse"
       x2="13" />
    <linearGradient
       gradientTransform="matrix(-3,0,0,-3,249,714)"
       xlink:href="#linearGradient3837"
       id="linearGradient5376"
       y1="15"
       x1="15.0625"
       y2="1.03125"
       gradientUnits="userSpaceOnUse"
       x2="15" />
    <linearGradient
       xlink:href="#linearGradient3837"
       id="linearGradient5382"
       y1="669"
       x1="246"
       y2="711"
       gradientUnits="userSpaceOnUse"
       x2="246" />
    <linearGradient
       xlink:href="#linearGradient3837"
       id="linearGradient5392"
       y1="672"
       x1="207"
       y2="705"
       gradientUnits="userSpaceOnUse"
       x2="207" />
    <linearGradient
       gradientTransform="matrix(-3,0,0,-3,249,714)"
       xlink:href="#linearGradient3779-0"
       id="linearGradient5384"
       y1="3.125"
       x1="3"
       y2="13"
       gradientUnits="userSpaceOnUse"
       x2="3.0625" />
    <linearGradient
       xlink:href="#linearGradient3771-2"
       id="linearGradient5390"
       y1="705"
       x1="210"
       y2="675"
       gradientUnits="userSpaceOnUse"
       x2="210" />
    <linearGradient
       gradientTransform="matrix(-3,0,0,-3,249,714)"
       xlink:href="#linearGradient3801"
       id="linearGradient5386"
       y1="14"
       x1="2.0625"
       y2="2"
       gradientUnits="userSpaceOnUse"
       x2="2" />
    <linearGradient
       gradientTransform="matrix(-3,0,0,-3,249,714)"
       xlink:href="#linearGradient3837"
       id="linearGradient5388"
       y1="15"
       x1="1"
       y2="0.96875"
       gradientUnits="userSpaceOnUse"
       x2="1" />
    <linearGradient
       id="linearGradient3801">
      <stop
         offset="0"
         style="stop-color:#4b4b4b"
         id="stop3803" />
      <stop
         offset="1"
         style="stop-color:#696969"
         id="stop3805" />
    </linearGradient>
    <linearGradient
       gradientTransform="matrix(-3,0,0,-3,249,714)"
       xlink:href="#linearGradient3837"
       id="linearGradient5370"
       y1="15"
       x1="1"
       y2="0.96875"
       gradientUnits="userSpaceOnUse"
       x2="1" />
    <linearGradient
       id="linearGradient3779-0">
      <stop
         offset="0"
         style="stop-color:#5f5f5f"
         id="stop3781-5" />
      <stop
         offset="1"
         style="stop-color:#464646"
         id="stop3783-7" />
    </linearGradient>
    <linearGradient
       id="linearGradient3837">
      <stop
         offset="0"
         id="stop3839" />
      <stop
         offset="1"
         style="stop-opacity:0"
         id="stop3841" />
    </linearGradient>
    <linearGradient
       id="linearGradient3771-2">
      <stop
         offset="0"
         style="stop-color:#474747"
         id="stop3773-4" />
      <stop
         offset="1"
         style="stop-color:#313131"
         id="stop3775-0" />
    </linearGradient>
    <linearGradient
       gradientTransform="matrix(-3,0,0,-3,249,714)"
       xlink:href="#linearGradient3801"
       id="linearGradient5368"
       y1="14"
       x1="2.0625"
       y2="2"
       gradientUnits="userSpaceOnUse"
       x2="2" />
    <linearGradient
       gradientTransform="matrix(-3,0,0,-3,249,714)"
       xlink:href="#linearGradient3771-2"
       id="linearGradient5360"
       y1="3"
       x1="13"
       y2="13"
       gradientUnits="userSpaceOnUse"
       x2="13" />
    <linearGradient
       gradientTransform="matrix(-3,0,0,-3,249,714)"
       xlink:href="#linearGradient3779-0"
       id="linearGradient5366"
       y1="3.125"
       x1="3"
       y2="13"
       gradientUnits="userSpaceOnUse"
       x2="3.0625" />
    <linearGradient
       gradientTransform="matrix(-3,0,0,-2.7692306,249,710.76923)"
       xlink:href="#linearGradient3837"
       id="linearGradient5362"
       y1="13.90625"
       x1="14"
       y2="2.0833333"
       gradientUnits="userSpaceOnUse"
       x2="14" />
    <linearGradient
       gradientTransform="matrix(-3,0,0,-3,249,714)"
       xlink:href="#linearGradient3837"
       id="linearGradient5364"
       y1="15"
       x1="15.0625"
       y2="1.03125"
       gradientUnits="userSpaceOnUse"
       x2="15" />
  </defs>
  <g
     transform="matrix(0.33333333,0,0,0.33333333,-67.000004,-222)"
     id="button-toggled-bottom"
     style="stroke:none">
    <path
       inkscape:connector-curvature="0"
       d="m 210,705 0,3 30,0 0,-3 -30,0 z"
       id="path7488"
       style="fill:#5f5f5f" />
    <path
       inkscape:connector-curvature="0"
       d="m 210,708 0,3 30,0 0,-3 -30,0 z"
       id="path7490"
       style="opacity:0.75;fill:#787878" />
    <path
       inkscape:connector-curvature="0"
       d="m 210,711 0,3 30,0 0,-3 -30,0 z"
       id="path7492"
       style="opacity:0.00100002" />
  </g>
  <g
     transform="matrix(0.33333333,0,0,0.33333333,-67.000004,-222)"
     id="button-toggled-left"
     style="stroke:none">
    <path
       inkscape:connector-curvature="0"
       d="m 207,675 0,30 3,0 0,-30 -3,0 z"
       id="path7497"
       style="fill:url(#linearGradient5360)" />
    <path
       inkscape:connector-curvature="0"
       d="m 204,675 0,30 3,0 0,-30 -3,0 z"
       id="path7499"
       style="opacity:0.5;fill:url(#linearGradient5362)" />
    <path
       inkscape:connector-curvature="0"
       d="m 201,675 0,30 3,0 0,-30 -3,0 z"
       id="path7501"
       style="opacity:0.00100002;fill:url(#linearGradient5364)" />
  </g>
  <g
     transform="matrix(0.33333333,0,0,0.33333333,-67.000004,-222)"
     id="button-toggled-right"
     style="stroke:none">
    <path
       inkscape:connector-curvature="0"
       d="m 240,675 0,30 3,0 0,-30 -3,0 z"
       id="path7505"
       style="fill:url(#linearGradient5366)" />
    <path
       inkscape:connector-curvature="0"
       d="m 243,675 0,30 3,0 0,-30 -3,0 z"
       id="path7507"
       style="opacity:0.8;fill:url(#linearGradient5368)" />
    <path
       inkscape:connector-curvature="0"
       d="m 246,675 0,30 3,0 0,-30 -3,0 z"
       id="path7509"
       style="opacity:0.00100002;fill:url(#linearGradient5370)" />
  </g>
  <g
     transform="matrix(0.33333333,0,0,0.33333333,-67.000004,-222)"
     id="button-toggled-top"
     style="stroke:none">
    <path
       inkscape:connector-curvature="0"
       d="m 210,669 0,3 30,0 0,-3 -30,0 z"
       id="path7578"
       style="opacity:0.5" />
    <path
       inkscape:connector-curvature="0"
       d="m 210,666 0,3 30,0 0,-3 -30,0 z"
       id="path7580"
       style="opacity:0.00100002" />
    <path
       inkscape:connector-curvature="0"
       d="m 210,672 0,3 30,0 0,-3 -30,0 z"
       id="path7582"
       style="fill:#313131" />
  </g>
  <g
     transform="matrix(0.33333333,0,0,0.33333333,-67.000004,-222)"
     id="button-toggled-topleft"
     style="stroke:none">
    <path
       inkscape:connector-curvature="0"
       d="m 208,673 -1,2 3,0 z"
       id="path8846"
       style="fill:url(#linearGradient5374)" />
    <path
       inkscape:connector-curvature="0"
       d="m 206,671 -2,4 3,0 1,-2 z"
       id="path8848"
       style="opacity:0.6;fill:#0f0f0f" />
    <path
       inkscape:connector-curvature="0"
       d="m 204,669 -3,6 3,0 2,-4 z"
       id="path8850"
       style="opacity:0.01000001;fill:url(#linearGradient5376)" />
    <path
       inkscape:connector-curvature="0"
       d="m 206,671 1,1 1,1 2,-1 0,-3 z"
       id="path8852"
       style="opacity:0.5" />
    <path
       inkscape:connector-curvature="0"
       d="m 204,669 0,0 2,2 4,-2 0,-3 z"
       id="path8854"
       style="opacity:0.01000001" />
    <path
       inkscape:connector-curvature="0"
       d="m 208,673 2,2 0,-3 z"
       id="path8856"
       style="fill:#313131" />
  </g>
  <g
     transform="matrix(0.33333333,0,0,0.33333333,-67.000004,-222)"
     id="button-toggled-topright"
     style="stroke:none">
    <path
       inkscape:connector-curvature="0"
       d="m 242,673 -2,2 3,0 z"
       id="path8864"
       style="fill:url(#linearGradient5378)" />
    <path
       inkscape:connector-curvature="0"
       d="m 244,671 -2,2 1,2 3,0 z"
       id="path8866"
       style="opacity:0.8;fill:url(#linearGradient5380)" />
    <path
       inkscape:connector-curvature="0"
       d="m 246,669 -2,2 2,4 3,0 z"
       id="path8868"
       style="opacity:0.01000001;fill:url(#linearGradient5382)" />
    <path
       inkscape:connector-curvature="0"
       d="m 240,669 0,3 2,1 2,-2 z"
       id="path8871"
       style="opacity:0.5" />
    <path
       inkscape:connector-curvature="0"
       d="m 240,666 0,3 4,2 2,-2 z"
       id="path8873"
       style="opacity:0.01000001" />
    <path
       inkscape:connector-curvature="0"
       d="m 240,672 0,3 2,-2 z"
       id="path8875"
       style="fill:#313131" />
  </g>
  <g
     transform="matrix(0.33333333,0,0,0.33333333,-67.000004,-222)"
     id="button-toggled-bottomright"
     style="stroke:none">
    <path
       inkscape:connector-curvature="0"
       d="m 240,705 0,3 2,-1 z"
       id="path8885"
       style="fill:#5f5f5f" />
    <path
       inkscape:connector-curvature="0"
       d="m 240,708 0,3 4,-2 -2,-2 z"
       id="path8887"
       style="opacity:0.75;fill:#787878" />
    <path
       inkscape:connector-curvature="0"
       d="m 240,711 0,3 6,-3 -2,-2 z"
       id="path8889"
       style="opacity:0.01000001" />
    <path
       inkscape:connector-curvature="0"
       d="m 240,705 2,2 1,-2 z"
       id="path8891"
       style="fill:url(#linearGradient5384)" />
    <path
       inkscape:connector-curvature="0"
       d="m 243,705 -1,2 2,2 2,-4 z"
       id="path8893"
       style="opacity:0.8;fill:url(#linearGradient5386)" />
    <path
       inkscape:connector-curvature="0"
       d="m 246,705 -2,4 2,2 3,-6 z"
       id="path8895"
       style="opacity:0.01000001;fill:url(#linearGradient5388)" />
  </g>
  <g
     transform="matrix(0.33333333,0,0,0.33333333,-67.000004,-222)"
     id="button-toggled-bottomleft"
     style="stroke:none">
    <path
       inkscape:connector-curvature="0"
       d="m 210,705 -2,2 2,1 z"
       id="path8911"
       style="fill:#5a5a5a" />
    <path
       inkscape:connector-curvature="0"
       d="m 208,707 -2,2 4,2 0,-3 z"
       id="path8913"
       style="opacity:0.5;fill:#646464" />
    <path
       inkscape:connector-curvature="0"
       d="m 204,711 0,0 6,3 0,-3 -4,-2 z"
       id="path8915"
       style="opacity:0.01000001" />
    <path
       inkscape:connector-curvature="0"
       d="m 207,705 1,2 2,-2 z"
       id="path8917"
       style="fill:url(#linearGradient5390)" />
    <path
       inkscape:connector-curvature="0"
       d="m 204,705 2,4 2,-2 -1,-2 z"
       id="path8919"
       style="opacity:0.5;fill:url(#linearGradient5392)" />
    <path
       inkscape:connector-curvature="0"
       d="m 201,705 3,6 0,0 2,-2 -2,-4 z"
       id="path8921"
       style="opacity:0.01000001;fill:url(#linearGradient5394)" />
  </g>
</svg>
